<?xml version="1.0" encoding="iso-8859-1"?>
<!-- Uploaded to: SVG Repo, www.svgrepo.com, Generator: SVG Repo Mixer Tools -->
<!DOCTYPE svg PUBLIC "-//W3C//DTD SVG 1.1//EN" "http://www.w3.org/Graphics/SVG/1.1/DTD/svg11.dtd">
<svg fill="#000000" version="1.1" id="Capa_1" xmlns="http://www.w3.org/2000/svg" xmlns:xlink="http://www.w3.org/1999/xlink" 
	 width="100px" height="100px" viewBox="0 0 423.955 423.955"
	 xml:space="preserve">
<g>
	<g>
		<path d="M421.146,213.043l-30.411-22.807c-2.011-1.511-4.398-1.82-6.379-0.829c-1.983,0.992-3.165,3.085-3.165,5.6v10.692h-37.739
			v-52.887c0-6.125-1.901-12.041-14.549-14.496l-98.69-23.175V72.603h11.547c2.527,0,4.624-1.192,5.602-3.189
			c0.977-1.995,0.636-4.382-0.915-6.378l-23.614-30.473c-1.352-1.747-3.399-2.778-5.43-2.724c-2.095,0.016-4.059,1.041-5.385,2.81
			L189.208,63.06c-1.507,2.011-1.817,4.394-0.827,6.377s3.084,3.167,5.597,3.167h10.693v42.578l-101.424,24.69
			c-6.479,1.579-7.919,4.691-7.987,7.024c-0.066,2.334,1.192,5.527,7.569,7.475l102.522,31.345c0.425,0.129,0.855,0.19,1.276,0.19
			c1.875,0,3.605-1.21,4.181-3.093c0.707-2.308-0.593-4.752-2.902-5.459l-98.261-30.041l100.435-24.448
			c3.899-1.182,3.282-2.057,3.336-4.248V68.231c0-2.415-1.957-4.371-4.372-4.371h-9.505l17.944-23.928l18.541,23.928h-10.185
			c-2.415,0-4.372,1.957-4.372,2.621v50.385c0,4.561,0.8,5.185,3.373,5.993l0.037,0.009c0.042,0.01,0.084,0.022,0.127,0.033
			l102.337,24.754c4.678,1.1,7.365,0.874,7.365,5.33v55.8c0,4.079,0.504,5.658,3.97,5.658h46.884c2.415,0,4.372-1.958,4.372-4.373
			v-9.509l23.929,17.947l-23.929,18.545v-10.188c0-2.414-1.957-4.371-4.372-4.371h-46.884c-2.415,0-3.97,1.005-3.97,5.322v43.133
			c0,0.977-1.021,2.374-1.953,2.671L227.98,306.431v-99.652c0-2.414-1.957-4.371-4.371-4.371c-2.415,0-4.372,1.957-4.372,4.371
			v100.395c0,2.787,1.189,5.253,3.26,6.767c1.348,0.984,2.969,1.494,4.67,1.494c0.909,0,1.842-0.146,2.765-0.441l105.474-33.039
			c4.585-1.462,8.044-6.191,8.044-11.004v-39.712h37.739v11.548c0,2.528,1.192,4.625,3.188,5.601c0.752,0.369,1.56,0.549,2.38,0.549
			c1.357,0,2.754-0.496,3.999-1.461l30.473-23.616c1.748-1.353,2.74-3.331,2.728-5.428
			C423.939,216.334,422.915,214.371,421.146,213.043z"/>
		<path d="M237.204,351.357h-10.692v-13.822c0-2.415-1.957-4.371-4.371-4.371c-2.415,0-4.372,1.956-4.372,4.371v18.194
			c0,2.415,1.957,4.371,4.372,4.371h9.507l-17.946,23.93L195.16,360.1h8.435c2.415,0,4.372-1.956,4.372-4.371l-0.042-151.786
			c0-4.827-3.476-9.545-8.085-10.978l-107.1-33.263c-2.656-0.824-5.363-0.425-7.428,1.098c-2.065,1.521-3.249,3.988-3.249,6.767
			v38.967H42.765v-11.55c0-2.528-1.192-4.623-3.186-5.601c-1.994-0.978-4.382-0.637-6.381,0.913L2.726,213.913
			c-1.749,1.354-2.74,3.333-2.726,5.428c0.018,2.097,1.039,4.062,2.808,5.388l30.415,22.807c1.231,0.926,2.604,1.402,3.941,1.402
			c0.839,0,1.67-0.189,2.436-0.572c1.983-0.991,3.167-3.086,3.167-5.599v-10.692h39.292v43.979c0,4.826,3.476,9.546,8.083,10.975
			c0,0,108.424,33.572,109.08,33.626v30.702h-9.797c-2.53,0-4.625,1.192-5.601,3.188c-0.981,1.997-0.638,4.382,0.911,6.379
			l23.614,30.472c1.341,1.733,3.301,2.725,5.377,2.725h0.05c2.097-0.016,4.061-1.039,5.386-2.807l22.811-30.413
			c1.507-2.011,1.82-4.396,0.827-6.377C241.81,352.542,239.717,351.357,237.204,351.357z M199.169,311.737L92.737,278.681
			c-0.92-0.286-1.934-1.661-1.934-2.626v-47.692c0-1.865-0.334-5.032-5.525-5.032H38.394c-2.415,0-4.372,1.956-4.372,4.371v9.509
			l-23.929-17.947l23.929-18.544v10.188c0,2.414,1.957,4.372,4.372,4.372c0,0,47.837,0,48.038,0c2.415,0,4.372-1.102,4.372-4.372
			l0.011-42.647l106.43,33.059c0.925,0.285,1.936,1.659,1.936,2.626L199.169,311.737z"/>
	</g>
</g>
</svg>