<?xml version="1.0" encoding="iso-8859-1"?>
<!-- Uploaded to: SVG Repo, www.svgrepo.com, Generator: SVG Repo Mixer Tools -->
<!DOCTYPE svg PUBLIC "-//W3C//DTD SVG 1.1//EN" "http://www.w3.org/Graphics/SVG/1.1/DTD/svg11.dtd">
<svg fill="#000000" version="1.1" id="Capa_1" xmlns="http://www.w3.org/2000/svg" xmlns:xlink="http://www.w3.org/1999/xlink" 
	 width="100px" height="100px" viewBox="0 0 506.906 506.906"
	 xml:space="preserve">
<g>
	<g>
		<path d="M443.961,336.36c-1.243,0-2.546-0.153-3.885-0.467l-147.282-34.412c-8.755-2.046-17.661-10.386-20.271-18.989
			l-13.062-43.013c-0.701-2.31,0.604-4.753,2.913-5.454c2.31-0.699,4.751,0.604,5.454,2.913l13.062,43.014
			c1.701,5.602,8.193,11.686,13.896,13.016l147.28,34.412c2.191,0.513,3.48,0.15,3.956-0.358c0.477-0.509,0.753-1.818,0.1-3.971
			l-19.189-63.195c-1.741-5.735-8.258-12.433-13.942-14.332l-148.248-49.499c-6.196-2.068-16.666-2.067-22.859,0.007L93.915,245.517
			c-5.687,1.902-12.204,8.603-13.945,14.338l-19.188,63.195c-0.654,2.15-0.376,3.46,0.1,3.971c0.478,0.509,1.768,0.867,3.955,0.358
			l147.281-34.412c5.702-1.332,12.194-7.414,13.896-13.016l13.062-43.014c0.701-2.31,3.144-3.614,5.454-2.913
			c2.31,0.701,3.615,3.144,2.914,5.454l-13.062,43.013c-2.612,8.604-11.516,16.945-20.271,18.989L66.826,335.894
			c-5.013,1.168-9.504,0.114-12.324-2.896c-2.82-3.011-3.581-7.561-2.084-12.488l19.188-63.195
			c2.569-8.459,11.149-17.284,19.535-20.089l147.969-49.485c7.959-2.66,20.436-2.667,28.402-0.007l148.248,49.499
			c8.386,2.799,16.97,11.621,19.54,20.082l19.188,63.195c1.495,4.926,0.734,9.478-2.084,12.488
			C450.335,335.205,447.371,336.36,443.961,336.36z"/>
	</g>
	<g>
		<path d="M253.593,506.906c-5.109,0-10.219-0.619-14.2-1.859L91.596,459.004c-8.956-2.789-15.972-12.322-15.972-21.703v-81.467
			c0-2.414,1.957-4.371,4.372-4.371c2.415,0,4.372,1.957,4.372,4.371v81.467c0,5.484,4.593,11.726,9.829,13.357l147.796,46.043
			c6.288,1.957,16.912,1.957,23.202,0l147.795-46.043c5.236-1.632,9.83-7.873,9.83-13.357v-81.401c0-2.415,1.957-4.372,4.371-4.372
			c2.415,0,4.372,1.957,4.372,4.372v81.401c0,9.381-7.016,18.914-15.974,21.703l-147.795,46.043
			C263.812,506.287,258.702,506.906,253.593,506.906z"/>
	</g>
	<path d="M299.4,91.365c-1.16-2.319-3.599-3.649-6.69-3.649h-19.624V4.372c0-2.415-1.957-4.372-4.372-4.372
		c-2.414,0-4.371,1.957-4.371,4.372v87.715c0,2.415,1.957,4.372,4.371,4.372h20.499l-35.18,46.888l-36.335-46.888h21.78
		c2.415,0,4.372-1.957,4.372-4.372v-61.2c0-2.415-1.957-4.371-4.372-4.371c-2.415,0-4.372,1.957-4.372,4.371v56.829h-21.083
		c-3.107,0-5.544,1.338-6.687,3.667c-1.142,2.329-0.705,5.073,1.2,7.529l38.894,50.188c1.67,2.154,4.081,3.389,6.622,3.389
		c0.021,0,0.042,0,0.062,0c2.563-0.023,4.98-1.295,6.629-3.496l37.564-50.084C300.162,96.432,300.561,93.684,299.4,91.365z"/>
</g>
</svg>